<?xml version="1.0" encoding="UTF-8"?>
<svg viewBox="84.75 117.63 329 64.65" xmlns="http://www.w3.org/2000/svg">
    <path class="color1" d="m115.34 163.88h-27.091c-1.928 0-3.492 1.563-3.492 3.492v11.416c0 2.498 2.546 4.188 4.848 3.218l27.091-11.417c3.51-1.479 2.453-6.709-1.356-6.709z" fill="#ec439d"/>
    <rect class="color2" x="84.756" y="141.61" width="53.111" height="18.451" rx="6.144" ry="6.144" fill="#7d4dff"/>
    <rect class="color3" x="84.756" y="117.63" width="68.912" height="20.169" rx="6.144" ry="6.144" fill="#1e92ff"/>
    <g fill="#333">
        <path class="color0" d="m169.11 133.53h7.248v35.947h-7.248v-35.947z"/>
        <path class="color0" d="m181.23 156.45c0-7.849 5.809-13.42 13.754-13.42s13.706 5.571 13.706 13.42-5.762 13.42-13.706 13.42-13.754-5.571-13.754-13.42zm20.119 0c0-4.506-2.741-7.219-6.365-7.219s-6.412 2.713-6.412 7.219 2.788 7.219 6.412 7.219 6.365-2.713 6.365-7.219z"/>
        <path class="color0" d="m229.048,143.027v6.977c-.604-.049-1.069-.097-1.627-.097-3.995,0-6.644,2.276-6.644,7.267v12.306h-7.248v-26.064h6.923v3.439c1.766-2.519,4.739-3.827,8.596-3.827Z"/>
        <path class="color0" d="m257.485,158.579h-18.911c.697,3.246,3.346,5.232,7.155,5.232,2.648,0,4.554-.824,6.272-2.52l3.856,4.36c-2.323,2.762-5.808,4.215-10.314,4.215-8.643,0-14.264-5.668-14.264-13.42,0-7.8,5.715-13.42,13.334-13.42,7.342,0,13.01,5.136,13.01,13.517,0,.582-.093,1.405-.139,2.035Zm-19.004-4.409h12.312c-.511-3.294-2.881-5.426-6.133-5.426-3.299,0-5.669,2.083-6.18,5.426Z"/>
        <path class="color0" d="m304.69 154.56v14.922h-7.248v-13.759c0-4.215-1.812-6.152-4.739-6.152-3.252 0-5.529 2.18-5.529 6.83v13.081h-7.248v-13.759c0-4.215-1.719-6.152-4.739-6.152-3.206 0-5.482 2.18-5.482 6.83v13.081h-7.248v-26.064h6.923v3.004c1.858-2.229 4.646-3.392 7.852-3.392 3.485 0 6.459 1.405 8.225 4.264 1.998-2.665 5.25-4.264 9.014-4.264 5.947 0 10.222 3.585 10.222 11.53z"/>
        <path class="color0" d="m311.2 133.53h7.248v35.947h-7.248v-35.947z"/>
        <path class="color0" d="m323.33 156.45c0-7.849 5.809-13.42 13.754-13.42s13.706 5.571 13.706 13.42-5.762 13.42-13.706 13.42-13.754-5.571-13.754-13.42zm20.119 0c0-4.506-2.741-7.219-6.365-7.219s-6.412 2.713-6.412 7.219 2.788 7.219 6.412 7.219 6.365-2.713 6.365-7.219z"/>
        <path class="color0" d="m381.41 143.42v21.704c0 9.689-5.018 14.146-14.031 14.146-4.739 0-9.339-1.211-12.267-3.585l2.881-5.426c2.138 1.792 5.622 2.955 8.828 2.955 5.111 0 7.341-2.423 7.341-7.122v-1.114c-1.904 2.181-4.646 3.246-7.898 3.246-6.923 0-12.498-4.99-12.498-12.596s5.575-12.597 12.498-12.597c3.484 0 6.365 1.212 8.271 3.73v-3.343h6.876zm-7.155 12.209c0-3.827-2.741-6.396-6.551-6.396s-6.598 2.568-6.598 6.396 2.788 6.395 6.598 6.395 6.551-2.567 6.551-6.395z"/>
        <path class="color0" d="m386.3 156.45c0-7.849 5.808-13.42 13.753-13.42s13.706 5.571 13.706 13.42-5.762 13.42-13.706 13.42-13.753-5.571-13.753-13.42zm20.118 0c0-4.506-2.741-7.219-6.365-7.219s-6.412 2.713-6.412 7.219 2.788 7.219 6.412 7.219 6.365-2.713 6.365-7.219z"/>
    </g>
</svg>
