<?xml version="1.0" encoding="UTF-8"?>
<svg fill="none" viewBox="0 0 24 24" xmlns="http://www.w3.org/2000/svg">
    <path d="m1 12c0-6.0751 4.9249-11 11-11 6.0751 0 11 4.9249 11 11 0 6.0751-4.9249 11-11 11-6.0751 0-11-4.9249-11-11zm11.5-6.5c0.5523 0 1 0.44772 1 1v4h4c0.5523 0 1 0.4477 1 1v1c0 0.5523-0.4477 1-1 1h-4v4c0 0.5523-0.4477 1-1 1h-1c-0.5523 0-1-0.4477-1-1v-4h-4c-0.55228 0-1-0.4477-1-1v-1c0-0.5523 0.44772-1 1-1h4v-4c0-0.55228 0.4477-1 1-1h1z" clip-rule="evenodd" fill="#fff" fill-rule="evenodd"/>
</svg>
